<?xml version="1.0" standalone="no"?><!DOCTYPE svg PUBLIC "-//W3C//DTD SVG 1.1//EN" "http://www.w3.org/Graphics/SVG/1.1/DTD/svg11.dtd"><svg t="1569225180366" class="icon" viewBox="0 0 1024 1024" version="1.1" xmlns="http://www.w3.org/2000/svg" p-id="2000" xmlns:xlink="http://www.w3.org/1999/xlink" width="64" height="64"><defs><style type="text/css"></style></defs><path d="M642.844444 950.044444c-11.377778 0-22.755556-5.688889-34.133333-17.066666-11.377778-17.066667-22.755556-28.444444-34.133333-34.133334-17.066667-11.377778-34.133333-11.377778-51.2-11.377777-34.133333 0-68.266667 17.066667-85.333334 51.2-11.377778 17.066667-34.133333 22.755556-51.2 11.377777l-176.355555-102.4c-17.066667-11.377778-22.755556-34.133333-17.066667-51.2 5.688889-17.066667 11.377778-28.444444 11.377778-51.2 0-56.888889-45.511111-102.4-102.4-102.4-22.755556 0-34.133333-17.066667-34.133333-39.822222V398.222222c0-22.755556 17.066667-39.822222 34.133333-39.822222s34.133333-5.688889 51.2-11.377778c22.755556-11.377778 39.822222-34.133333 51.2-62.577778 5.688889-22.755556 0-51.2-5.688889-73.955555-17.066667-17.066667-11.377778-39.822222 5.688889-51.2L381.155556 56.888889c17.066667-11.377778 39.822222-5.688889 51.2 11.377778 17.066667 22.755556 51.2 51.2 85.333333 51.2s68.266667-17.066667 85.333333-51.2c11.377778-17.066667 34.133333-22.755556 51.2-11.377778l176.355556 102.4c22.755556 11.377778 28.444444 34.133333 17.066666 51.2-5.688889 17.066667-11.377778 28.444444-11.377777 51.2 0 56.888889 45.511111 102.4 102.4 102.4 22.755556 0 34.133333 17.066667 34.133333 39.822222v204.8c0 22.755556-17.066667 39.822222-34.133333 39.822222s-34.133333 5.688889-51.2 11.377778c-22.755556 11.377778-39.822222 34.133333-51.2 62.577778-5.688889 22.755556 0 51.2 5.688889 73.955555 11.377778 17.066667 0 39.822222-17.066667 51.2l-176.355556 102.4h-5.688889z m-125.155555-142.222222c28.444444 0 62.577778 5.688889 91.022222 22.755556 17.066667 5.688889 28.444444 17.066667 39.822222 28.444444l119.466667-68.266666c-5.688889-28.444444-11.377778-62.577778 0-96.711112 11.377778-45.511111 45.511111-85.333333 85.333333-108.088888 17.066667-5.688889 28.444444-17.066667 45.511111-17.066667V432.355556c-79.644444-22.755556-136.533333-91.022222-136.533333-176.355556 0-17.066667 0-34.133333 5.688889-51.2l-119.466667-68.266667c-34.133333 34.133333-79.644444 51.2-130.844444 51.2-51.2 0-102.4-28.444444-130.844445-56.888889l-113.777777 73.955556c5.688889 28.444444 11.377778 62.577778 0 96.711111-17.066667 39.822222-45.511111 79.644444-85.333334 108.088889-17.066667 5.688889-34.133333 11.377778-45.511111 17.066667v136.533333c79.644444 22.755556 136.533333 91.022222 136.533334 176.355556 0 17.066667 0 34.133333-5.688889 51.2l119.466666 68.266666c34.133333-28.444444 79.644444-51.2 125.155556-51.2z" fill="#e6e6e6" p-id="2001"></path><path d="M517.688889 665.6c-91.022222 0-164.977778-73.955556-164.977778-164.977778s73.955556-164.977778 164.977778-164.977778S682.666667 409.6 682.666667 500.622222s-68.266667 164.977778-164.977778 164.977778z m0-256c-45.511111 0-85.333333 45.511111-85.333333 91.022222s39.822222 91.022222 91.022222 91.022222c51.2 0 91.022222-39.822222 91.022222-91.022222S568.888889 409.6 517.688889 409.6z" fill="#e6e6e6" p-id="2002"></path></svg>